<svg xmlns="http://www.w3.org/2000/svg" viewBox="0 0 1817.54 576.79"><defs><style>.cls-1{fill:#fff;}.cls-2{stroke:#000;stroke-miterlimit:10;stroke-width:6.01px;}</style></defs><g id="Layer_2" data-name="Layer 2"><g id="MASTER_FILE"><g id="PRIMARY_LOGO_BLACK"><rect id="LOGO_BG_BLACK" width="574.31" height="576.79" rx="95.92"/><path id="LOGO_CORE_WHITE" class="cls-1" d="M481.84,332,418.35,440.89c-10.52,18.06-33.63,32.68-51.58,32.68s-24-14.62-13.5-32.68L359.62,430c3.5-6,4.25-11.47,2.61-15.39s-5.6-6.39-11.6-6.39c-12,0-27.38,9.75-34.39,21.78l-6.35,10.89c-10.53,18.06-33.63,32.68-51.59,32.68s-24-14.62-13.49-32.68l44.44-76.25c3.5-6,4.25-11.47,2.61-15.39s-5.6-6.39-11.6-6.39c-12,0-27.38,9.75-34.39,21.78l-44.45,76.25C190.9,459,167.8,473.57,149.84,473.57s-24-14.62-13.49-32.68l57.14-98c3.49-6,4.25-11.48,2.61-15.4s-5.61-6.39-11.61-6.39c-10.27,0-23.05,7.17-30.9,16.8-.41.48-.79,1-1.14,1.45-.07.08-.11.15-.18.22-11.81,14.4-30.94,25.1-46.3,25.1C88,364.64,82,350,92.48,332l38.09-65.35c10.53-18.06,33.61-32.68,51.59-32.68,9,0,15,3.65,17.42,9.56,1.78,4.31,1.68,9.8-.55,15.95-.17.41-.31.82-.48,1.24-3.37,9.63,1.07,16.82,11.34,16.82,12,0,27.37-9.76,34.39-21.79l69.83-119.82c10.53-18.06,33.6-32.68,51.59-32.68,9,0,15,3.66,17.42,9.56s1.33,14.09-3.93,23.12L296.66,277.5c-7,12-3,21.79,9,21.79S333,289.53,340,277.5l6.35-10.89c10.52-18.06,33.6-32.68,51.58-32.68,9,0,15,3.65,17.43,9.56s1.33,14.09-3.93,23.12L367,342.86c-7,12-3,21.78,9,21.78s27.38-9.75,34.39-21.78l6.35-10.9c10.53-18,33.6-32.67,51.58-32.67,9,0,15,3.65,17.43,9.56S487.1,322.93,481.84,332Z"/><path id="L" class="cls-2" d="M707.17,438.07V113.88h35.69V438.07Z"/><path id="O" class="cls-2" d="M892.25,440.76q-49.32,0-80.14-31.32T781.29,330.9q0-47.19,30.82-78.72t80.14-31.52q47.55,0,78.82,30.86t31.27,79.38q0,48.54-31.27,79.2T892.25,440.76Zm0-32.65q31.29,0,52.65-21.83t21.36-55.38q0-34-21.14-55.59T892.25,253.7q-33,0-54,22.27T817.36,330.9q0,32.66,20.92,54.93T892.25,408.11Z"/><path id="K" class="cls-2" d="M1118.85,339.84l-.95.22L1073,389.88v48.19H1037.7V113.88H1073V340.63l1.07.17,105.23-117.45h43.75l-80.19,89,80.64,125.72h-41.13Z"/><path id="A" class="cls-2" d="M1402.68,223.35h35.47V438.12H1404v-34h-.44q-27.29,36.62-74.79,36.62-45.32,0-75.23-30t-29.91-78.53q0-47.61,29.69-79.56t75-32q45.75,0,73.91,34.75h.44Zm-70.83,184.76q29.91,0,51-21.39T1404,332.23q0-33.09-20.46-55.81t-51.25-22.72q-30.8,0-51.69,21.84t-20.9,56.69q0,33.09,20,54.49T1331.85,408.11Z"/><path id="M" class="cls-2" d="M1739.2,220.66q75.35,0,75.34,91.73V438.07h-35.69v-116q0-35.71-12.12-52.05t-38.11-16.31q-25.55,0-42.73,21.17t-17.18,56.46V438.07H1633V321.62q0-67.92-51.1-67.92-26.88,0-44.5,21.17t-17.61,56.46V438.07H1484.5V223.3h35.31v37h.43A94,94,0,0,1,1552.4,231a82.39,82.39,0,0,1,40.09-10.35q51.54,0,68.28,42.3h.45Q1687.65,220.66,1739.2,220.66Z"/></g></g></g></svg>