<svg xmlns="http://www.w3.org/2000/svg" viewBox="0 0 574.31 576.79"><defs><style>.cls-1{fill:#fff;}</style></defs><g id="Layer_2" data-name="Layer 2"><g id="MASTER_FILE"><g id="PRIMARY_LOGO_BLACK"><rect id="LOGO_BG_BLACK" width="574.31" height="576.79" rx="95.92"/><path id="LOGO_CORE_WHITE" class="cls-1" d="M481.84,332,418.35,440.89c-10.52,18.06-33.63,32.68-51.58,32.68s-24-14.62-13.5-32.68L359.62,430c3.5-6,4.25-11.47,2.61-15.39s-5.6-6.39-11.6-6.39c-12,0-27.38,9.75-34.39,21.78l-6.35,10.89c-10.53,18.06-33.63,32.68-51.59,32.68s-24-14.62-13.49-32.68l44.44-76.25c3.5-6,4.25-11.47,2.61-15.39s-5.6-6.39-11.6-6.39c-12,0-27.38,9.75-34.39,21.78l-44.45,76.25C190.9,459,167.8,473.57,149.84,473.57s-24-14.62-13.49-32.68l57.14-98c3.49-6,4.25-11.48,2.61-15.4s-5.61-6.39-11.61-6.39c-10.27,0-23.05,7.17-30.9,16.8-.41.48-.79,1-1.14,1.45-.07.08-.11.15-.18.22-11.81,14.4-30.94,25.1-46.3,25.1C88,364.64,82,350,92.48,332l38.09-65.35c10.53-18.06,33.61-32.68,51.59-32.68,9,0,15,3.65,17.42,9.56,1.78,4.31,1.68,9.8-.55,15.95-.17.41-.31.82-.48,1.24-3.37,9.63,1.07,16.82,11.34,16.82,12,0,27.37-9.76,34.39-21.79l69.83-119.82c10.53-18.06,33.6-32.68,51.59-32.68,9,0,15,3.66,17.42,9.56s1.33,14.09-3.93,23.12L296.66,277.5c-7,12-3,21.79,9,21.79S333,289.53,340,277.5l6.35-10.89c10.52-18.06,33.6-32.68,51.58-32.68,9,0,15,3.65,17.43,9.56s1.33,14.09-3.93,23.12L367,342.86c-7,12-3,21.78,9,21.78s27.38-9.75,34.39-21.78l6.35-10.9c10.53-18,33.6-32.67,51.58-32.67,9,0,15,3.65,17.43,9.56S487.1,322.93,481.84,332Z"/></g></g></g></svg>